<svg width="31.742004" height="31.741943" viewBox="0 0 31.742 31.7419" fill="none" xmlns="http://www.w3.org/2000/svg" xmlns:xlink="http://www.w3.org/1999/xlink">
	<desc>
			Created with Pixso.
	</desc>
	<defs/>
	<path id="Vector" d="M15.87 31.74C24.63 31.74 31.74 24.63 31.74 15.87C31.74 7.1 24.63 0 15.87 0C7.1 0 0 7.1 0 15.87C0 24.63 7.1 31.74 15.87 31.74ZM20.82 7.39C21.06 6.53 20.23 6.03 19.47 6.57L8.88 14.11C8.05 14.7 8.18 15.87 9.07 15.87L11.86 15.87L11.86 15.84L17.3 15.84L12.87 17.41L10.91 24.34C10.67 25.2 11.5 25.71 12.26 25.17L22.85 17.62C23.68 17.03 23.55 15.87 22.66 15.87L18.43 15.87L20.82 7.39Z" fill="#A8FF35" fill-opacity="1.000000" fill-rule="evenodd"/>
</svg>
